<svg xmlns="http://www.w3.org/2000/svg" width="48" height="48" viewBox="0 0 48 48" fill="none">
  <!-- Database cylinder -->
  <ellipse cx="24" cy="8" rx="10" ry="4" fill="#B0BEC5" stroke="#546E7A" stroke-width="1.2"/>
  <path d="M14 8v6c0 2.2 4.5 4 10 4s10-1.8 10-4V8" fill="#78909C" stroke="#546E7A" stroke-width="1.2"/>
  <ellipse cx="24" cy="14" rx="10" ry="4" fill="none" stroke="#546E7A" stroke-width="0.8" opacity="0.5"/>
  <!-- Red platform -->
  <ellipse cx="24" cy="18" rx="8" ry="2.5" fill="#EF5350" stroke="#C62828" stroke-width="0.8"/>
  <!-- Document/code lines -->
  <rect x="16" y="20" width="16" height="12" rx="1" fill="#fff" stroke="#37474F" stroke-width="1"/>
  <line x1="18" y1="23" x2="30" y2="23" stroke="#37474F" stroke-width="1"/>
  <line x1="18" y1="25.5" x2="27" y2="25.5" stroke="#37474F" stroke-width="0.6" stroke-dasharray="2 1"/>
  <line x1="18" y1="28" x2="29" y2="28" stroke="#37474F" stroke-width="0.6" stroke-dasharray="2 1"/>
  <!-- Yellow square (left) -->
  <rect x="4" y="22" width="8" height="8" rx="1" fill="#FDD835" stroke="#F9A825" stroke-width="1"/>
  <!-- Blue bar (right) -->
  <rect x="36" y="23" width="8" height="4" rx="1" fill="#29B6F6" stroke="#0288D1" stroke-width="0.8"/>
  <rect x="36" y="28" width="8" height="2.5" rx="0.5" fill="#B0BEC5" stroke="#78909C" stroke-width="0.5"/>
  <!-- Connection lines -->
  <path d="M12 26h4M32 26h4" stroke="#37474F" stroke-width="1.2"/>
  <path d="M8 30v4h8M40 30v4h-8" stroke="#37474F" stroke-width="1.2" fill="none"/>
  <!-- Code folder (bottom) -->
  <rect x="14" y="34" width="20" height="12" rx="2" fill="#E0F7FA" stroke="#37474F" stroke-width="1"/>
  <rect x="14" y="33" width="10" height="3" rx="1" fill="#80DEEA" stroke="#37474F" stroke-width="0.8"/>
  <text x="24" y="43" text-anchor="middle" font-family="monospace" font-size="7" font-weight="bold" fill="#37474F">&lt;/&gt;</text>
</svg>
